<svg id="Capa_1" enable-background="new 0 0 512 512" height="512" viewBox="0 0 512 512" width="512" xmlns="http://www.w3.org/2000/svg"><g><path d="m336 252h-160c-4.376 0-8.535-1.911-11.384-5.233-2.85-3.321-4.107-7.722-3.441-12.048l16.086-104.562c3.401-22.109 22.107-38.157 44.477-38.157h68.524c22.37 0 41.076 16.048 44.477 38.157l16.086 104.562c.666 4.326-.591 8.727-3.441 12.048-2.849 3.322-7.008 5.233-11.384 5.233z" fill="#ff7038"/><path d="m334.739 130.157c-3.401-22.109-22.107-38.157-44.477-38.157h-34.262v160h80c4.376 0 8.535-1.911 11.384-5.233 2.85-3.321 4.107-7.722 3.441-12.048z" fill="#ff1f3d"/><path d="m376 312h-240c-8.284 0-15-6.716-15-15v-40c0-19.299 15.701-35 35-35h200c19.299 0 35 15.701 35 35v40c0 8.284-6.716 15-15 15z" fill="#e2dff4"/><path d="m356 222h-100v90h120c8.284 0 15-6.716 15-15v-40c0-19.299-15.701-35-35-35z" fill="#bebcdd"/><path d="m467 512h-422c-24.813 0-45-20.187-45-45v-140c0-24.813 20.187-45 45-45h422c24.813 0 45 20.187 45 45v140c0 24.813-20.187 45-45 45z" fill="#f4f4f6"/><path d="m467 282h-211v230h211c24.813 0 45-20.187 45-45v-140c0-24.813-20.187-45-45-45z" fill="#e2dff4"/><path d="m45 312c-8.271 0-15 6.729-15 15v140c0 8.271 6.729 15 15 15h422c8.271 0 15-6.729 15-15v-140c0-8.271-6.729-15-15-15z" fill="#8bb9ff"/><path d="m467 312h-211v170h211c8.271 0 15-6.729 15-15v-140c0-8.271-6.729-15-15-15z" fill="#7d81e7"/><g fill="#e2dff4"><path d="m316.756 354.593c-.035-.093-.071-.184-.108-.274-1.83-4.447-6.117-7.318-10.924-7.318-.004 0-.009 0-.013 0-4.813.005-9.1 2.887-10.921 7.342-.031.075-.061.15-.089.226l-30.04 78.873c-1.966 5.161.625 10.939 5.786 12.904 5.162 1.966 10.938-.625 12.904-5.785l5.029-13.203h34.46l4.972 13.174c1.511 4.005 5.316 6.473 9.357 6.473 1.173 0 2.367-.208 3.529-.646 5.167-1.95 7.775-7.72 5.825-12.887zm-20.76 52.763 9.692-25.447 9.603 25.447z"/><path d="m370.586 347c-5.523 0-10 4.478-10 10v80c0 5.522 4.477 10 10 10s10-4.478 10-10v-80c0-5.522-4.477-10-10-10z"/><path d="m435.175 407.292c13.185-3.798 22.825-15.583 22.825-29.501 0-16.979-14.341-30.791-31.968-30.791h-21.259c-.004 0-.009.001-.013.001s-.008-.001-.013-.001c-5.523 0-10 4.478-10 10v80c0 5.522 4.477 10 10 10s10-4.478 10-10v-22.646l25.746 29.253c1.977 2.246 4.737 3.394 7.511 3.394 2.346 0 4.703-.821 6.603-2.493 4.146-3.649 4.549-9.968.9-14.113zm-9.143-40.292c6.487 0 11.968 4.941 11.968 10.791s-5.48 10.791-11.968 10.791c-2.61 0-7.035.018-11.167.038-.021-4.029-.039-8.312-.039-10.829 0-2.142-.011-6.567-.022-10.791z"/></g><path d="m99.941 347c-27.57 0-50 22.43-50 50s22.43 50 50 50 50-22.43 50-50-22.43-50-50-50zm0 80c-16.542 0-30-13.458-30-30s13.458-30 30-30 30 13.458 30 30-13.458 30-30 30z" fill="#f4f4f6"/><path d="m228.254 347c-.033 0-.066 0-.099 0-5.522.054-9.956 4.574-9.903 10.097l.472 48.753-37.555-54.383c-2.487-3.602-7.026-5.164-11.205-3.864-4.178 1.303-7.024 5.171-7.024 9.547v79.85c0 5.522 4.477 10 10 10s10-4.478 10-10v-47.771l35.764 51.788c2.938 4.245 7.841 6.051 12.487 4.6 4.743-1.481 7.808-5.922 7.808-11.409l-.748-77.304c-.052-5.491-4.519-9.904-9.997-9.904z" fill="#f4f4f6"/><path d="m256 60c-8.284 0-15-6.716-15-15v-30c0-8.284 6.716-15 15-15s15 6.716 15 15v30c0 8.284-6.716 15-15 15z" fill="#f4f4f6"/><path d="m271 45v-30c0-8.284-6.716-15-15-15v60c8.284 0 15-6.716 15-15z" fill="#e2dff4"/><path d="m191.262 70.004c-6.127 0-11.879-3.782-14.096-9.873l-10.261-28.19c-2.833-7.785 1.18-16.393 8.965-19.227 7.784-2.833 16.393 1.181 19.226 8.965l10.261 28.19c2.833 7.785-1.18 16.393-8.965 19.227-1.694.616-3.427.908-5.13.908z" fill="#f4f4f6"/><path d="m320.738 70.004c-1.704 0-3.436-.292-5.129-.908-7.785-2.834-11.798-11.441-8.965-19.227l10.261-28.19c2.833-7.785 11.442-11.796 19.226-8.965 7.785 2.834 11.798 11.441 8.965 19.227l-10.261 28.19c-2.217 6.09-7.97 9.873-14.097 9.873z" fill="#e2dff4"/></g></svg>